<svg width="8" height="8" viewBox="0 0 8 8" fill="none" xmlns="http://www.w3.org/2000/svg">
<path d="M0.506158 2.64587L1.05516 2.97319L1.01122 3.1838L0.376953 3.26511L0.413718 3.0889L0.868818 3.04376L0.469567 2.82124L0.506158 2.64587ZM0.645335 2.31445L1.20485 2.5427L1.1414 2.69825L0.581877 2.47L0.645335 2.31445ZM1.54912 1.95347L1.45819 2.09474L1.05313 2.10007L1.33711 2.28285L1.24619 2.42412L0.738055 2.09707L0.82898 1.9558L1.23764 1.95278L0.95006 1.76768L1.04098 1.62641L1.54912 1.95347ZM1.8461 1.52642L1.68811 1.67119L1.7307 1.76587L1.60052 1.88516L1.35467 1.29082L1.49748 1.15995L2.06752 1.45722L1.93671 1.57709L1.8461 1.52642ZM1.72827 1.46L1.54821 1.35993L1.63285 1.54745L1.72827 1.46ZM2.33771 0.621641L2.34653 1.08542L2.43775 1.25437L2.28916 1.33459L2.19795 1.16564L1.81502 0.903844L1.98397 0.812627L2.18826 0.967283L2.17102 0.711637L2.33771 0.621641ZM3.04806 0.936702L2.84035 0.989372L2.83301 1.09293L2.66185 1.13633L2.72685 0.496434L2.91462 0.44882L3.27585 0.980632L3.10386 1.02424L3.04806 0.936702ZM2.97575 0.822398L2.86457 0.648977L2.85029 0.854211L2.97575 0.822398ZM3.71856 0.977716L3.52978 0.712397L3.52914 0.977253L3.36114 0.976842L3.36261 0.372559L3.53061 0.372969L3.52998 0.63354L3.71833 0.373428L3.91204 0.373901L3.68932 0.666501L3.92171 0.978213L3.71856 0.977716ZM4.90615 0.627675L4.71396 1.20058L4.55468 1.14715L4.63183 0.917176L4.43761 0.852023L4.36046 1.082L4.20119 1.02857L4.39337 0.455659L4.55265 0.50909L4.48041 0.724439L4.67463 0.789592L4.74687 0.574244L4.90615 0.627675ZM4.95877 1.2989C4.93378 1.25062 4.92267 1.19918 4.92546 1.14456C4.92824 1.08995 4.94598 1.03782 4.97866 0.988191C5.01135 0.938559 5.05223 0.901679 5.10131 0.877552C5.15038 0.853424 5.20196 0.843428 5.25602 0.847562C5.31009 0.851697 5.36075 0.869322 5.40799 0.900438C5.45572 0.931868 5.49203 0.971524 5.51695 1.01941C5.54186 1.06729 5.55281 1.11846 5.54978 1.17292C5.54676 1.22737 5.5289 1.27942 5.49622 1.32905C5.46353 1.37868 5.42277 1.41564 5.37393 1.43992C5.32509 1.46421 5.27356 1.4744 5.21934 1.47051C5.16511 1.46661 5.11438 1.44911 5.06713 1.41799C5.01989 1.38687 4.98377 1.34718 4.95877 1.2989ZM5.26087 1.3085C5.29703 1.29879 5.32799 1.27436 5.35376 1.23523C5.38017 1.19514 5.39061 1.15669 5.38509 1.11987C5.37958 1.08306 5.35892 1.05286 5.32313 1.02929C5.28686 1.0054 5.25085 0.998274 5.21508 1.0079C5.17932 1.01754 5.14823 1.04239 5.12183 1.08248C5.09575 1.12209 5.08534 1.16023 5.09062 1.19689C5.09589 1.23355 5.11667 1.26382 5.15294 1.28771C5.18873 1.31128 5.22471 1.31821 5.26087 1.3085ZM5.47172 1.66948C5.46543 1.61366 5.48391 1.56328 5.52716 1.51833L5.64923 1.64945C5.63492 1.66511 5.62791 1.68023 5.6282 1.69479C5.62848 1.70936 5.63447 1.72292 5.64615 1.73546C5.65666 1.74676 5.66815 1.75343 5.68061 1.7555C5.69307 1.75756 5.70432 1.75392 5.71436 1.74458C5.72732 1.73251 5.73171 1.7171 5.72753 1.69835C5.72335 1.6796 5.713 1.65254 5.69647 1.61718C5.67923 1.57937 5.66683 1.54739 5.65927 1.52124C5.65172 1.49509 5.65049 1.46735 5.65558 1.43802C5.66067 1.40869 5.67723 1.38098 5.70525 1.35489C5.73369 1.32841 5.76468 1.31284 5.7982 1.30818C5.83172 1.30352 5.86539 1.30887 5.89921 1.32423C5.93303 1.33959 5.96473 1.36316 5.99432 1.39495C6.04221 1.4464 6.06844 1.49868 6.07301 1.55181C6.07758 1.60494 6.05909 1.6528 6.01754 1.69538L5.89314 1.56175C5.90613 1.54887 5.91237 1.53545 5.91186 1.52148C5.91135 1.50752 5.90545 1.49447 5.89416 1.48234C5.88559 1.47314 5.87587 1.46814 5.86498 1.46735C5.85409 1.46655 5.84363 1.47083 5.83359 1.48017C5.82522 1.48796 5.82103 1.49792 5.821 1.51004C5.82097 1.52217 5.82323 1.53509 5.8278 1.5488C5.83236 1.56251 5.84006 1.58189 5.85089 1.60694C5.86735 1.64392 5.87935 1.67588 5.88688 1.70284C5.8944 1.72979 5.89583 1.75774 5.89115 1.78668C5.88648 1.81563 5.87118 1.84217 5.84524 1.86631C5.81889 1.89084 5.78913 1.90625 5.75595 1.91254C5.72278 1.91883 5.68854 1.91518 5.65324 1.90159C5.61795 1.88799 5.58453 1.86426 5.55299 1.83038C5.5051 1.77893 5.47801 1.7253 5.47172 1.66948ZM6.52552 2.1575L6.41087 2.22632L6.32794 2.08815L5.92446 2.33032L5.83801 2.18627L6.24148 1.9441L6.15944 1.80741L6.27409 1.73859L6.52552 2.1575ZM6.54015 2.55354L6.44733 2.58671L6.51222 2.76832L6.39196 2.8113L6.32706 2.62968L6.22455 2.66631L6.2981 2.87214L6.17138 2.91742L6.0413 2.55339L6.61035 2.35006L6.74042 2.71409L6.6137 2.75937L6.54015 2.55354ZM6.35039 3.17079L6.38107 3.35598L6.25423 3.377L6.1961 3.02606L6.79226 2.92731L6.81971 3.09306L6.35039 3.17079Z" fill="#BF5000"/>
<path d="M1.3492 4.9825L1.05091 5.14314L1.03482 5.11326L1.17436 5.03812L1.08727 4.87639L0.947727 4.95153L0.931641 4.92166L1.22993 4.76103L1.24601 4.7909L1.11202 4.86306L1.19912 5.02479L1.33311 4.95263L1.3492 4.9825ZM1.17725 5.30297C1.174 5.27369 1.17864 5.24533 1.19117 5.2179C1.20371 5.19047 1.22339 5.16691 1.25022 5.14722C1.27705 5.12753 1.30544 5.11582 1.33536 5.1121C1.36529 5.10837 1.39373 5.11245 1.42069 5.12433C1.44764 5.13621 1.47039 5.15479 1.48893 5.18006C1.50767 5.20559 1.51866 5.23299 1.52191 5.26227C1.52516 5.29155 1.52047 5.31984 1.50784 5.34714C1.49521 5.37444 1.47548 5.39794 1.44864 5.41762C1.42181 5.43731 1.39348 5.44909 1.36365 5.45294C1.33381 5.4568 1.30542 5.45279 1.27846 5.4409C1.25151 5.42902 1.22867 5.41032 1.20993 5.38479C1.19139 5.35952 1.1805 5.33224 1.17725 5.30297ZM1.28798 5.41168C1.30921 5.42095 1.33206 5.42382 1.35652 5.4203C1.38099 5.41677 1.40481 5.4065 1.428 5.38949C1.45118 5.37248 1.46806 5.35288 1.47864 5.33069C1.48921 5.30851 1.49326 5.2859 1.49078 5.26286C1.48831 5.23983 1.47962 5.21815 1.46471 5.19783C1.4498 5.17752 1.43173 5.16272 1.4105 5.15345C1.38927 5.14418 1.36648 5.14126 1.34215 5.14469C1.31781 5.14812 1.29405 5.15834 1.27087 5.17535C1.24768 5.19237 1.23074 5.21201 1.22004 5.2343C1.20933 5.25658 1.20522 5.27923 1.20769 5.30227C1.21017 5.3253 1.21886 5.34698 1.23377 5.3673C1.24868 5.38762 1.26675 5.40241 1.28798 5.41168ZM1.86535 5.61098L1.62927 5.84785L1.60524 5.8239L1.79376 5.63475L1.52079 5.73973L1.50328 5.72228L1.60667 5.44965L1.41883 5.63811L1.3948 5.61416L1.63088 5.37729L1.65629 5.40261L1.54334 5.69925L1.8396 5.58532L1.86535 5.61098ZM1.94922 5.70548L1.87207 5.80573L1.97386 5.88406L1.95671 5.90634L1.85493 5.82801L1.7766 5.9298L1.88991 6.017L1.87276 6.03928L1.73256 5.93139L1.93947 5.66251L2.07967 5.7704L2.06253 5.79268L1.94922 5.70548ZM2.31764 6.2143L2.1817 6.14166L2.11771 6.19869L2.08607 6.18178L2.35269 5.94508L2.38646 5.96312L2.33742 6.3161L2.30579 6.29919L2.31764 6.2143ZM2.32191 6.18471L2.34926 5.9916L2.20393 6.12166L2.32191 6.18471ZM2.94458 6.18444L2.74145 6.47206L2.7058 6.45949L2.72137 6.1587L2.54307 6.40213L2.50816 6.39035L2.53226 6.03911L2.56655 6.0512L2.54092 6.35718L2.72151 6.10581L2.75716 6.11838L2.73794 6.42662L2.9103 6.17235L2.94458 6.18444ZM3.15384 6.4843L3.0024 6.45565L2.9584 6.52921L2.92316 6.52254L3.10676 6.21692L3.14438 6.22403L3.20318 6.57552L3.16794 6.56885L3.15384 6.4843ZM3.14907 6.45479L3.1174 6.26234L3.01763 6.42992L3.14907 6.45479ZM3.55588 6.2645L3.43291 6.46324L3.42357 6.59474L3.38972 6.59234L3.39907 6.46084L3.30448 6.24664L3.34267 6.24935L3.41819 6.4311L3.51817 6.26182L3.55588 6.2645ZM3.94471 6.24392L3.9471 6.27193L3.79837 6.28463L3.80913 6.41067L3.93469 6.39995L3.93708 6.42796L3.81152 6.43868L3.8248 6.59418L3.79099 6.59706L3.76217 6.2595L3.94471 6.24392ZM4.25265 6.53365L4.14374 6.41036L4.08233 6.42209L4.10888 6.5611L4.07555 6.56747L4.012 6.23469L4.11197 6.2156C4.14911 6.20851 4.17897 6.21202 4.20157 6.22612C4.22416 6.24023 4.23822 6.26172 4.24374 6.2906C4.24834 6.31473 4.24536 6.33659 4.2348 6.35621C4.22424 6.37583 4.20595 6.39075 4.17994 6.40098L4.29264 6.52601L4.25265 6.53365ZM4.07715 6.39495L4.14427 6.38214C4.1703 6.37716 4.18868 6.36707 4.19943 6.35186C4.21018 6.33665 4.21352 6.31842 4.20946 6.29715C4.20528 6.27525 4.1957 6.25956 4.18073 6.25009C4.16576 6.24061 4.14463 6.23848 4.11734 6.24369L4.05069 6.25642L4.07715 6.39495ZM4.46716 6.45929C4.43831 6.45334 4.41278 6.44018 4.39055 6.41979C4.36833 6.3994 4.35199 6.37341 4.34154 6.34181C4.33109 6.31021 4.32872 6.2796 4.33441 6.24998C4.3401 6.22037 4.35276 6.19457 4.37238 6.1726C4.392 6.15063 4.41669 6.13472 4.44645 6.12488C4.47651 6.11494 4.50597 6.11295 4.53482 6.11889C4.56367 6.12484 4.58913 6.13803 4.6112 6.15847C4.63328 6.17891 4.64954 6.20493 4.65998 6.23652C4.67043 6.26812 4.67288 6.29871 4.66735 6.32827C4.66181 6.35784 4.64923 6.38361 4.62961 6.40558C4.60999 6.42755 4.58514 6.44351 4.55508 6.45345C4.52532 6.46329 4.49602 6.46523 4.46716 6.45929ZM4.60474 6.38751C4.62011 6.37018 4.6299 6.34933 4.63409 6.32497C4.63829 6.30061 4.63588 6.27478 4.62685 6.24748C4.61782 6.22017 4.60439 6.19807 4.58655 6.18117C4.56871 6.16426 4.54845 6.15344 4.52578 6.14868C4.50311 6.14392 4.47981 6.1455 4.45588 6.15341C4.43195 6.16133 4.4123 6.17395 4.39693 6.19128C4.38156 6.20861 4.37175 6.22938 4.36751 6.25359C4.36326 6.2778 4.36565 6.30355 4.37467 6.33085C4.3837 6.35816 4.39716 6.38034 4.41505 6.39739C4.43294 6.41445 4.45322 6.42536 4.4759 6.43011C4.49857 6.43487 4.52187 6.43329 4.5458 6.42538C4.56973 6.41747 4.58938 6.40484 4.60474 6.38751ZM4.9725 5.89983L5.12495 6.19749L5.09475 6.21296L4.97301 5.97526L4.98863 6.26731L4.96663 6.27857L4.73921 6.09609L4.86051 6.33293L4.83031 6.34839L4.67786 6.05073L4.70978 6.03438L4.95709 6.23336L4.94015 5.9164L4.9725 5.89983ZM5.36226 5.60896L5.57318 5.87408L5.54663 5.8952L5.44796 5.77118L5.30421 5.88554L5.40288 6.00956L5.37633 6.03069L5.16541 5.76557L5.19196 5.74444L5.28671 5.86354L5.43046 5.74918L5.33571 5.63008L5.36226 5.60896ZM5.70811 5.72143C5.67987 5.72981 5.65114 5.73027 5.62193 5.72279C5.59271 5.71531 5.56603 5.70011 5.5419 5.67719C5.51777 5.65427 5.50122 5.62841 5.49226 5.59962C5.48329 5.57082 5.48226 5.54211 5.48919 5.51348C5.49611 5.48484 5.51036 5.45916 5.53195 5.43644C5.55375 5.41348 5.57878 5.39781 5.60702 5.38943C5.63526 5.38105 5.66393 5.38065 5.69304 5.38825C5.72214 5.39584 5.74876 5.4111 5.77289 5.43402C5.79702 5.45694 5.81363 5.48274 5.82271 5.51142C5.83179 5.5401 5.83287 5.56875 5.82594 5.59739C5.81902 5.62602 5.80466 5.65181 5.78285 5.67477C5.76127 5.6975 5.73635 5.71305 5.70811 5.72143ZM5.7955 5.5932C5.80086 5.57066 5.79964 5.54767 5.79184 5.52421C5.78404 5.50076 5.76971 5.47913 5.74886 5.45932C5.72801 5.43951 5.70573 5.42637 5.68202 5.4199C5.65832 5.41342 5.63535 5.41344 5.61312 5.41996C5.59088 5.42647 5.57109 5.43886 5.55373 5.45714C5.53638 5.47541 5.52501 5.49581 5.51965 5.51835C5.51429 5.54089 5.51545 5.56383 5.52313 5.58717C5.53082 5.61051 5.54509 5.63209 5.56594 5.65189C5.58679 5.6717 5.60913 5.68489 5.63295 5.69148C5.65677 5.69807 5.6798 5.69811 5.70203 5.69159C5.72426 5.68508 5.74406 5.67268 5.76142 5.65441C5.77877 5.63614 5.79013 5.61573 5.7955 5.5932ZM5.88939 4.98966L6.16432 5.18006L6.14501 5.20795L5.92546 5.05591L6.07713 5.30597L6.06306 5.32629L5.77642 5.27282L5.99517 5.42431L5.97586 5.4522L5.70092 5.2618L5.72134 5.23232L6.0333 5.29094L5.86869 5.01954L5.88939 4.98966ZM5.96754 4.89038L6.07988 4.94855L6.13894 4.8345L6.1639 4.84743L6.10484 4.96148L6.21889 5.02054L6.28464 4.89358L6.3096 4.90651L6.22825 5.0636L5.92698 4.90758L6.00833 4.75049L6.03329 4.76342L5.96754 4.89038Z" fill="white"/>
<mask id="mask0_5_3" style="mask-type:luminance" maskUnits="userSpaceOnUse" x="2" y="2" width="3" height="3">
<path d="M2.45996 2.24072H4.77631V4.99503H2.45996V2.24072Z" fill="white"/>
</mask>
<g mask="url(#mask0_5_3)">
<mask id="mask1_5_3" style="mask-type:luminance" maskUnits="userSpaceOnUse" x="2" y="2" width="3" height="3">
<path d="M2.45996 4.99502H4.77631V2.24072H2.45996V4.99502Z" fill="white"/>
</mask>
<g mask="url(#mask1_5_3)">
<path d="M3.16871 2.52629C3.19684 2.44613 3.25563 2.37819 3.34501 2.32247C3.43494 2.26798 3.53415 2.24074 3.64244 2.24074C3.73942 2.23997 3.83462 2.26673 3.917 2.3179C4.00023 2.36931 4.06817 2.45097 4.12075 2.56302C4.18752 2.53305 4.25055 2.51803 4.30995 2.51803C4.41702 2.51803 4.50735 2.56268 4.58075 2.65206C4.64931 2.73406 4.68358 2.82467 4.68358 2.92382C4.68349 3.01126 4.6657 3.09778 4.63128 3.17816C4.64842 3.16894 4.6631 3.16437 4.67532 3.16437C4.68754 3.16437 4.69369 3.17079 4.69369 3.18362C4.69369 3.26809 4.65449 3.35965 4.57618 3.45818C4.48803 3.5677 4.38977 3.63018 4.28148 3.64547C4.24659 3.65155 4.22911 3.6424 4.22911 3.61789C4.22911 3.60075 4.23675 3.57938 4.25205 3.55364C4.1712 3.57599 4.08576 3.57569 4.00508 3.55275C3.96242 3.54192 3.92116 3.52621 3.88211 3.50591C3.88211 3.30762 3.92246 3.1105 4.0033 2.91467C4.02529 2.86387 4.05649 2.81149 4.09692 2.75762C4.13734 2.70443 4.15748 2.67377 4.15748 2.66585C4.15748 2.65479 4.15168 2.6423 4.14007 2.62823C4.12723 2.61594 4.11836 2.60986 4.11344 2.60986C4.01976 2.66981 3.93687 2.7962 3.86463 2.98902C3.79177 3.18239 3.75538 3.37979 3.75538 3.58122C3.75538 3.75138 3.78016 3.8949 3.82974 4.0118C3.88668 4.1489 3.97483 4.24866 4.09419 4.31107C4.05376 4.32275 4.02345 4.33005 4.0033 4.33312C3.97854 4.33681 3.95373 4.34018 3.92888 4.34323C3.78016 4.34323 3.66818 4.27495 3.59287 4.13846C3.53777 4.03624 3.49461 3.87496 3.46341 3.65462C3.43221 3.43428 3.40189 3.21886 3.37253 3.00828C3.35601 2.90914 3.33122 2.81853 3.29817 2.73652C3.25413 2.627 3.20756 2.57217 3.15861 2.57217C3.14823 2.57217 3.13778 2.58474 3.1274 2.60986C3.12685 2.616 3.12496 2.62194 3.12187 2.62727C3.18981 2.72703 3.2428 2.85984 3.28069 3.02576C3.31804 3.19038 3.33675 3.3746 3.33675 3.57842C3.30363 3.62314 3.23208 3.64547 3.12187 3.64547C2.98354 3.64547 2.85592 3.61393 2.73902 3.5509C2.60315 3.47989 2.53521 3.38806 2.53521 3.27546C2.58293 3.06311 2.65087 2.88831 2.73902 2.7512C2.84185 2.59211 2.95663 2.51249 3.08329 2.51249H3.13293C3.15007 2.51925 3.16202 2.52383 3.16871 2.52629ZM3.46621 2.91187C3.48028 2.91187 3.49284 2.90668 3.50383 2.8963C3.51334 2.88535 3.51856 2.87133 3.51851 2.85683C3.51868 2.84202 3.51347 2.82766 3.50383 2.81641C3.49385 2.80643 3.48032 2.80081 3.46621 2.80077C3.45207 2.80081 3.43853 2.80643 3.42852 2.81641C3.41888 2.82766 3.41367 2.84202 3.41384 2.85683C3.41384 2.87151 3.41875 2.88462 3.42852 2.8963C3.43853 2.90626 3.45208 2.91186 3.46621 2.91187ZM2.48837 3.63168C2.50612 3.60355 2.53678 3.58948 2.5802 3.58948C2.61878 3.58948 2.69587 3.617 2.81154 3.6721C2.87156 3.70146 2.93273 3.73082 2.99521 3.76025C3.00436 3.80306 3.00894 3.84041 3.00894 3.87223C3.00894 3.96953 2.98203 4.04669 2.92816 4.10357C2.87367 4.16174 2.80512 4.19083 2.7225 4.19083C2.71031 4.18924 2.69805 4.18831 2.68576 4.18803C2.6295 4.16297 2.57809 4.10329 2.53152 4.009C2.48379 3.916 2.45996 3.82846 2.45996 3.74646C2.45996 3.69689 2.46945 3.65865 2.48837 3.63168ZM3.11914 3.75377C3.16502 3.75377 3.21152 3.74769 3.25871 3.73547C3.30766 3.7244 3.34283 3.71307 3.36427 3.70146C3.39731 3.8753 3.44443 4.0219 3.50568 4.14126C3.5773 4.28137 3.66415 4.37566 3.76637 4.42401C3.75353 4.44299 3.73913 4.47419 3.72322 4.51769C3.70845 4.5602 3.69377 4.60273 3.67918 4.6453C3.5984 4.49898 3.51544 4.38515 3.43036 4.30376C3.31961 4.1954 3.19043 4.12473 3.04294 4.09169C3.05332 4.06656 3.06254 4.03686 3.07046 4.00258C3.07906 3.96769 3.08329 3.93375 3.08329 3.9007C3.08329 3.86151 3.07599 3.81105 3.06131 3.74919C3.08268 3.75226 3.102 3.75377 3.11914 3.75377ZM3.55067 2.6016H3.7747V2.55107H3.55067V2.6016ZM3.7719 2.46757H3.55067V2.51529H3.7719V2.46757ZM3.77648 2.38952H3.5433C3.54821 2.40721 3.5601 2.421 3.57908 2.43083H3.74438C3.75722 2.4253 3.76794 2.41151 3.77648 2.38952ZM3.74985 2.85683C3.74985 2.87151 3.75476 2.88462 3.7646 2.8963C3.77431 2.90666 3.78802 2.91233 3.80222 2.91187C3.81613 2.91219 3.82951 2.90652 3.83895 2.8963C3.85979 2.87375 3.85979 2.83896 3.83895 2.81641C3.82952 2.80617 3.81614 2.80048 3.80222 2.80077C3.78801 2.80034 3.77431 2.80603 3.7646 2.81641C3.75491 2.82764 3.74967 2.84201 3.74985 2.85683ZM3.86278 3.60689C3.92949 3.63264 3.97695 3.64854 4.00508 3.65462C4.03512 3.66015 4.07029 3.66288 4.11071 3.66288C4.15106 3.66288 4.18595 3.65804 4.21538 3.6482C4.21538 3.68555 4.2175 3.71464 4.2218 3.73547C4.22672 3.75745 4.23675 3.78504 4.25205 3.81809C4.18718 3.92515 4.09603 4.02894 3.97845 4.12931C3.9381 4.08097 3.90717 4.02006 3.88572 3.94659C3.8545 3.83619 3.84668 3.72049 3.86278 3.60689ZM4.56334 3.89429C4.50271 3.89429 4.45498 3.87742 4.42009 3.84376C4.38397 3.8101 4.36594 3.7679 4.36594 3.7171C4.36717 3.70727 4.36778 3.69962 4.36778 3.69409C4.38308 3.65927 4.42009 3.62738 4.47881 3.59863C4.53637 3.56927 4.59024 3.55459 4.64043 3.55459C4.67163 3.55459 4.69553 3.56039 4.71206 3.572C4.72919 3.58306 4.73773 3.60198 4.73773 3.62895C4.73773 3.65278 4.72093 3.70057 4.68727 3.77213C4.66854 3.8096 4.65017 3.84725 4.63217 3.88507C4.60964 3.89072 4.58656 3.89381 4.56334 3.89429ZM4.77631 3.80614V3.80702L4.77446 3.81071C4.775 3.80915 4.77561 3.80763 4.77631 3.80614ZM4.46051 4.55804C4.25669 4.72027 4.01976 4.80132 3.74985 4.80132C3.748 4.79217 3.74712 4.77654 3.74712 4.75455C3.74712 4.69638 3.75627 4.6367 3.77463 4.57552C3.793 4.5155 3.82147 4.46654 3.86005 4.42858C3.94083 4.42858 4.01184 4.42066 4.07302 4.40475C4.15871 4.38331 4.20159 4.34965 4.20159 4.30376C4.20159 4.27195 4.18322 4.24928 4.14649 4.23583C4.08961 4.21561 4.05288 4.19786 4.03635 4.18257C4.09937 4.12562 4.15106 4.0699 4.19148 4.01548C4.21477 3.9836 4.2429 3.93956 4.27595 3.88322C4.30346 3.90774 4.33931 3.92979 4.38335 3.94932C4.42757 3.96772 4.47502 3.9771 4.52292 3.97691C4.5841 3.97691 4.64534 3.9625 4.70652 3.93375C4.73165 3.97472 4.74415 4.02436 4.74415 4.08247C4.74415 4.24893 4.64965 4.40748 4.46051 4.55804ZM3.66081 4.51031C3.68532 4.51031 3.69754 4.49652 3.69754 4.469C3.69754 4.44388 3.68532 4.43138 3.66081 4.43138C3.63753 4.43138 3.62592 4.44388 3.62592 4.469C3.62592 4.49652 3.63753 4.51031 3.66081 4.51031ZM3.88572 4.87391C3.93352 4.86653 3.98275 4.85369 4.03355 4.83533C3.99682 4.8806 3.96104 4.91426 3.92615 4.93631C3.86497 4.97551 3.79519 4.9951 3.7168 4.9951C3.67424 4.99526 3.63179 4.99093 3.59014 4.9822C3.54972 4.97366 3.50288 4.95741 3.44962 4.93358C3.46437 4.93358 3.47966 4.93447 3.49557 4.93631C3.51271 4.93816 3.52589 4.93905 3.53504 4.93905C3.61581 4.93905 3.68286 4.9204 3.73612 4.88306C3.78938 4.88306 3.83923 4.87998 3.88572 4.87391ZM3.66634 4.85185C3.6047 4.86873 3.54111 4.87738 3.4772 4.87759C3.28438 4.87759 3.10412 4.813 2.93642 4.68381C2.76811 4.55469 2.66378 4.4081 2.62336 4.24409C2.65825 4.25938 2.69833 4.26703 2.7436 4.26703C2.79563 4.26703 2.84431 4.25904 2.88958 4.24313C2.93431 4.22599 2.97589 4.19691 3.01447 4.15594C3.12829 4.18898 3.23754 4.25139 3.34221 4.34323C3.45972 4.44729 3.56781 4.58528 3.66634 4.75728V4.85185Z" fill="#BF5000"/>
</g>
</g>
<path d="M1.21387 3.61817C1.21387 2.98051 1.46718 2.36897 1.91807 1.91807C2.36897 1.46718 2.98051 1.21387 3.61817 1.21387C4.25583 1.21387 4.86737 1.46718 5.31827 1.91807C5.76916 2.36897 6.02247 2.98051 6.02247 3.61817C6.02247 4.25583 5.76916 4.86737 5.31827 5.31827C4.86737 5.76916 4.25583 6.02247 3.61817 6.02247C2.98051 6.02247 2.36897 5.76916 1.91807 5.31827C1.46718 4.86737 1.21387 4.25583 1.21387 3.61817ZM1.25672 3.61817C1.25672 4.24446 1.50552 4.84511 1.94838 5.28796C2.39123 5.73082 2.99188 5.97962 3.61817 5.97962C4.24446 5.97962 4.84511 5.73082 5.28796 5.28796C5.73082 4.84511 5.97962 4.24446 5.97962 3.61817C5.97962 2.99188 5.73082 2.39123 5.28796 1.94838C4.84511 1.50552 4.24446 1.25672 3.61817 1.25672C2.99188 1.25672 2.39123 1.50552 1.94838 1.94838C1.50552 2.39123 1.25672 2.99188 1.25672 3.61817Z" fill="#BF5000"/>
<path d="M0 3.61797C0 2.65843 0.381178 1.73818 1.05968 1.05968C1.73818 0.381178 2.65843 0 3.61797 0C4.57752 0 5.49777 0.381178 6.17627 1.05968C6.85477 1.73818 7.23595 2.65843 7.23595 3.61797C7.23595 4.57752 6.85477 5.49777 6.17627 6.17627C5.49777 6.85477 4.57752 7.23595 3.61797 7.23595C2.65843 7.23595 1.73818 6.85477 1.05968 6.17627C0.381178 5.49777 0 4.57752 0 3.61797ZM0.0428571 3.61797C0.0428571 4.56615 0.41952 5.4755 1.08998 6.14596C1.76045 6.81643 2.66979 7.19309 3.61797 7.19309C4.56615 7.19309 5.4755 6.81643 6.14596 6.14596C6.81643 5.4755 7.19309 4.56615 7.19309 3.61797C7.19309 2.66979 6.81643 1.76045 6.14596 1.08998C5.4755 0.41952 4.56615 0.0428571 3.61797 0.0428571C2.66979 0.0428571 1.76045 0.41952 1.08998 1.08998C0.41952 1.76045 0.0428571 2.66979 0.0428571 3.61797Z" fill="#BF5000"/>
<mask id="mask2_5_3" style="mask-type:luminance" maskUnits="userSpaceOnUse" x="0" y="3" width="1" height="2">
<path d="M0.558594 4.38867L0.453756 3.97127L0.871162 3.86643L0.976 4.28383L0.558594 4.38867Z" fill="white"/>
</mask>
<g mask="url(#mask2_5_3)">
<path d="M0.860655 4.094L0.859218 4.08828L0.750254 4.09663L0.762481 3.98782L0.756754 3.98622L0.709264 4.08487L0.621514 4.02019L0.617224 4.02431L0.678698 4.1146L0.578721 4.15873L0.580158 4.16446L0.689122 4.1561L0.67761 4.26473L0.683338 4.26634L0.730112 4.16787L0.818578 4.23237L0.822868 4.22825L0.760678 4.13813L0.860655 4.094Z" fill="white"/>
</g>
<mask id="mask3_5_3" style="mask-type:luminance" maskUnits="userSpaceOnUse" x="6" y="3" width="1" height="2">
<path d="M6.67676 4.38867L6.7816 3.97127L6.36419 3.86643L6.25935 4.28383L6.67676 4.38867Z" fill="white"/>
</mask>
<g mask="url(#mask3_5_3)">
<path d="M6.3747 4.094L6.37613 4.08828L6.4851 4.09663L6.47287 3.98782L6.4786 3.98622L6.52609 4.08487L6.61384 4.02019L6.61813 4.02431L6.55665 4.1146L6.65663 4.15873L6.65519 4.16446L6.54623 4.1561L6.55774 4.26473L6.55201 4.26634L6.50524 4.16787L6.41677 4.23237L6.41248 4.22825L6.47467 4.13813L6.3747 4.094Z" fill="white"/>
</g>
</svg>
