<svg xmlns="http://www.w3.org/2000/svg" version="1.1" xmlns:xlink="http://www.w3.org/1999/xlink" xmlns:svgjs="http://svgjs.dev/svgjs" viewBox="0 0 10.0703291613471 10.0703291613471"><g transform="matrix(0.8571428571428571,0,0,0.8571428571428571,3.876988735890115,3.658012793535412)"><rect width="11.74871735490495" height="11.74871735490495" x="-4.523153525205133" y="-4.267681592457979" fill="#ffffff"></rect><g><path d=" M -2.279080557651455 0.4727805845903904 L -1.6385767260661617 0.8546560115617508 L -1.6898442120119805 1.1003644666152863 L -2.4298192215080854 1.195222177536642 L -2.386926105776524 0.9896493665356763 L -1.8559762995072786 0.9369872053319158 L -2.3217694204509614 0.6773744774437327 L -2.279080557651455 0.4727805845903904 M -2.1167074019735725 0.08611964737408756 L -1.4639343250589014 0.3524133011763377 L -1.5379677380308745 0.5338934757511966 L -2.1907408149455456 0.26759982194894655 L -2.1167074019735725 0.08611964737408756 M -1.0622954577934436 -0.33502180044975405 L -1.168375128276314 -0.1702094722996863 L -1.6409406960679258 -0.16398178109092765 L -1.3096342813172794 0.04926000549198553 L -1.4157139518001498 0.21407233364205325 L -2.00853380560524 -0.16748974641112896 L -1.9024541351223698 -0.33230207456119665 L -1.425684171204481 -0.335823651727025 L -1.7611949820814046 -0.5517715523528686 L -1.6551153115985342 -0.7165838805029363 L -1.0622954577934436 -0.33502180044975405 M -0.715814966083249 -0.8332442740789732 L -0.9001301948641885 -0.664342242002891 L -0.8504511748838935 -0.5538841278880943 L -1.0023269233993877 -0.41470885345740255 L -1.2891545986671336 -1.1081090875938646 L -1.1225336318491643 -1.260796524590643 L -0.4574911071229304 -0.9139832602743015 L -0.6101041165535483 -0.7741323777153055 L -0.715814966083249 -0.8332442740789732 M -0.8532819701699624 -0.9107286130606249 L -1.063352452972755 -1.0274778839577128 L -0.9646083683536499 -0.8087117856866712 L -0.8532819701699624 -0.9107286130606249 M -0.14227243491597608 -1.8888196773890038 L -0.1319790647230562 -1.3477475504686907 L -0.025559083937563898 -1.1506415188775305 L -0.19890679922086105 -1.0570489464902895 L -0.3053267800063534 -1.2541549780814496 L -0.7520692201511281 -1.5595828618338872 L -0.5549631885599677 -1.6660028426193794 L -0.3166266586896206 -1.4855708650506538 L -0.3367386535840404 -1.7838249642033173 L -0.14227243491597608 -1.8888196773890038 M 0.68647565149105 -1.521249240683688 L 0.4441453030962913 -1.4598000564183553 L 0.43557771490234093 -1.3389878201484358 L 0.23589750782505967 -1.2883536923138015 L 0.3117264063466336 -2.0348950362117835 L 0.5307930412954955 -2.090445098787644 L 0.9522260176799667 -1.469997481002125 L 0.7515764892091065 -1.4191175564304295 L 0.68647565149105 -1.521249240683688 M 0.6021093926464778 -1.6546034096045381 L 0.4723993106844877 -1.856928135323897 L 0.4557418622160434 -1.6174881023082772 L 0.6021093926464778 -1.6546034096045381 M 1.468727277127335 -1.4733991135882136 L 1.2484831994277097 -1.7829383618883954 L 1.2477279372754864 -1.473939284900969 L 1.0517285227462452 -1.4744183508616024 L 1.0534516936760752 -2.179416244959129 L 1.2494511082053164 -2.178937178998495 L 1.2487080671235173 -1.87493808707559 L 1.4684504540313565 -2.1784018961139093 L 1.6944497789477264 -2.17784950373073 L 1.4346146313884909 -1.8364835767654422 L 1.7057265691856522 -1.4728198348501007 L 1.468727277127335 -1.4733991135882136 M 2.8542416671866366 -1.8817802059451787 L 2.6300205862182016 -1.2133866790096266 L 2.444197704970871 -1.2757233199597164 L 2.534204181444725 -1.5440288066586685 L 2.307614035433949 -1.6200413433274004 L 2.217607558960095 -1.3517358566284483 L 2.031784677712764 -1.414072497578538 L 2.2560057586811992 -2.08246602451409 L 2.44182863992853 -2.0201293835640004 L 2.357546957011317 -1.7688892635102111 L 2.5841371030220928 -1.6928767268414795 L 2.6684187859393056 -1.9441168468952683 L 2.8542416671866366 -1.8817802059451787 M 2.9156367017927214 -1.098685071396275 Q 2.871895808493109 -1.183171663547645 2.876768459774303 -1.2787475876577048 Q 2.8816411110554965 -1.3743235117677643 2.9388439618720907 -1.4611787583476596 Q 2.9960468126886854 -1.5480340049275552 3.081928684337666 -1.5902572701029065 Q 3.1678105559866467 -1.6324805352782576 3.2624289848683263 -1.6252450037868909 Q 3.3570474137500055 -1.6180094722955238 3.439726927321252 -1.5635567585374193 Q 3.5232415874942284 -1.5085540173676169 3.5668399211988246 -1.4247600122229607 Q 3.6104382549034213 -1.3409660070783045 3.6051480303213626 -1.2456650966740939 Q 3.5998578057393043 -1.1503641862698832 3.5426549549227095 -1.0635089396899877 Q 3.4854521041061153 -0.9766536931100924 3.3999878057579993 -0.9341554142288921 Q 3.3145235074098838 -0.891657135347692 3.219630064822355 -0.898475093538194 Q 3.1247366222348267 -0.9052930517286961 3.04205710866358 -0.9597457654868006 Q 2.9593775950923336 -1.014198479244905 2.9156367017927214 -1.098685071396275 M 3.268078313070801 -1.08748638220016 Q 3.3313585334192486 -1.1044823732760543 3.376460781178487 -1.1729643946178947 Q 3.4226630837611207 -1.243116709163195 3.41301053605323 -1.3075475117559525 Q 3.40335798834534 -1.37197831434871 3.340721993215608 -1.413230370226062 Q 3.277250851484146 -1.4550324535151118 3.2146632181424115 -1.4381790220342334 Q 3.1520755848006776 -1.4213255905533548 3.1058732822180435 -1.3511732760080548 Q 3.060221007047107 -1.2818561080644844 3.069455981454133 -1.217700319177576 Q 3.0786909558611586 -1.1535445302906673 3.1421620975926206 -1.1117424470016175 Q 3.2047980927223527 -1.0704903911242656 3.268078313070801 -1.08748638220016 M 3.514077503765337 -0.6663370570314192 Q 3.5030678965864452 -0.7640204156436542 3.578761191094821 -0.8426812392248262 L 3.7211672354591054 -0.6897056904318328 Q 3.6961295456397374 -0.6622992297243807 3.6966325624504575 -0.6368090948858175 Q 3.6971355792611775 -0.6113189600472543 3.7175766382608355 -0.5893607473018485 Q 3.735973591360528 -0.5695983558309834 3.7577787381790944 -0.5659878749460094 Q 3.7795838849976606 -0.5623773940610355 3.7971504551939854 -0.578730241260762 Q 3.819840608364238 -0.599852668893742 3.8125239052202984 -0.6326622079807738 Q 3.805207202076359 -0.6654717470678055 3.776288989832217 -0.7273566159826119 Q 3.7461091839044816 -0.7935319838634496 3.732887736122507 -0.8392888775358627 Q 3.719666288340532 -0.8850457712082758 3.728578704022036 -0.936378692873812 Q 3.7374911197035394 -0.9877116145393483 3.7865311281682787 -1.033363312971918 Q 3.8363030770578654 -1.0796963800378094 3.894968721195884 -1.08785678430913 Q 3.953634365333902 -1.0960171885804506 4.01281499395439 -1.0691349789226876 Q 4.071995622574877 -1.0422527692649246 4.123779638707344 -0.9866252969765632 Q 4.207587980605942 -0.8965966247203997 4.2155820007264095 -0.8036203070781444 Q 4.2235760208468776 -0.7106439894358891 4.150861059829414 -0.6361219494461736 L 4.005729540931842 -0.7920252599385544 Q 4.02847026589362 -0.8145609966297032 4.027575992974714 -0.839003792622521 Q 4.026681720055808 -0.8634465886153389 4.006922029689472 -0.8846728609358977 Q 3.991931919756389 -0.9007755502825285 3.972877533366873 -0.9021649239971994 Q 3.9538231469773564 -0.9035542977118703 3.936256576781032 -0.8872014505121439 Q 3.9216177682840945 -0.8735740778457053 3.921565845940305 -0.8523491560774109 Q 3.9215139235965157 -0.8311242343091165 3.929500027702028 -0.8071352338877584 Q 3.9374861318075407 -0.7831462334664004 3.956436673509478 -0.7393070162151409 Q 3.9852537421705696 -0.6745955291839969 3.9984246181610197 -0.6274253264534151 Q 4.01159549415147 -0.5802551237228332 4.003415018894812 -0.5296035706906188 Q 3.9952345436381558 -0.47895201765840445 3.9498542372976506 -0.4367071623924445 Q 3.9037419905322985 -0.39378093849316265 3.8456818573403146 -0.38276863020974194 Q 3.7876217241483308 -0.37175632192632124 3.725854018145117 -0.3955470868383732 Q 3.6640863121419027 -0.4193378517504252 3.6088954528428263 -0.4786250261630207 Q 3.525087110944228 -0.5686536984191843 3.514077503765337 -0.6663370570314192 M 4.74350348341066 -0.09697860114424434 L 4.609746200292344 -0.0166979109827462 L 4.512997676251564 -0.17789258550994846 L 4.042274929892872 0.10463368948147755 L 3.941409447382272 -0.06342033289794605 L 4.412132193740963 -0.34594660788937204 L 4.316412909317639 -0.5054264454535189 L 4.450170192435956 -0.5857071356150171 L 4.74350348341066 -0.09697860114424434 M 4.760579889157634 0.3650644773125924 L 4.652285913545261 0.403760922188922 L 4.727996349172862 0.6156404396913905 L 4.587685024249006 0.6657775726181131 L 4.511974588621404 0.4538980551156446 L 4.392380372075566 0.49663238989211295 L 4.478185532453515 0.7367625097282439 L 4.330340713574015 0.789591569255059 L 4.1785833514938 0.3648908475056667 L 4.842472506334868 0.12766481587251582 L 4.994229868415083 0.5523655376219081 L 4.8463850495355825 0.6051945971487234 L 4.760579889157634 0.3650644773125924 M 4.539195728717624 1.0851919779339259 L 4.574983319723002 1.3012481010363084 L 4.426999673762466 1.3257601496701286 L 4.359183005875564 0.9163387291793124 L 5.054706141890082 0.801132100600358 L 5.086735218771608 0.9944973979887917 L 4.539195728717624 1.0851919779339259" fill="#bf5000" fill-rule="nonzero"></path></g><g><path d=" M -1.295293368214335 3.1985461421731203 L -1.6432922934225256 3.3859533631398513 L -1.6620598262804243 3.351103685365068 L -1.4992620458182238 3.263432496157456 L -1.6008748308631322 3.0747463836339874 L -1.763672611325333 3.1624175728416 L -1.7824401441832316 3.127567895066817 L -1.434441218975041 2.940160674100086 L -1.4156736861171424 2.975010351874869 L -1.5719993835640262 3.0591961421231573 L -1.4703865985191178 3.2478822546466253 L -1.3140609010722337 3.163696464398337 L -1.295293368214335 3.1985461421731203 M -1.4958997806399825 3.5724230625917084 Q -1.5015846068087197 3.521187213715078 -1.4796509467032486 3.4731805555956132 Q -1.4577172865977774 3.4251738974761485 -1.410761153107706 3.3907176801447796 Q -1.3638050196176343 3.35626146281341 -1.3114294587630895 3.349740320690028 Q -1.2590538979085446 3.3432191785666463 -1.2118835557437249 3.364013126694203 Q -1.1647132135789051 3.38480707482176 -1.1322641545386838 3.429027899564837 Q -1.0994805691166043 3.4737046090990793 -1.093795742947867 3.52494045797571 Q -1.0881109167791299 3.5761763068523407 -1.11021184007553 3.6239550225762223 Q -1.1323127633719303 3.671733738300104 -1.1792688968620015 3.7061899556314732 Q -1.2262250303520732 3.7406461729628426 -1.2784333280156892 3.7473952574818075 Q -1.3306416256793052 3.7541443420007723 -1.3778119678441247 3.7333503938732155 Q -1.4249823100089445 3.712556445745659 -1.457765895431024 3.667879736211416 Q -1.4902149544712455 3.623658911468339 -1.4958997806399825 3.5724230625917084 M -1.3667113772278334 3.6992545479343986 Q -1.3295588890706735 3.715476455239788 -1.2867437159200994 3.7093077769463427 Q -1.2439285427695255 3.7031390986528976 -1.2033547963557742 3.6733662506675397 Q -1.1627810499420232 3.643593402682182 -1.144279718680805 3.604768282615732 Q -1.1257783874195866 3.5659431625492823 -1.130107170612813 3.5256353557501203 Q -1.1344359538060393 3.485327548950958 -1.1605290115909597 3.44976853524003 Q -1.1866220693758802 3.4142095215291017 -1.22377455753304 3.3979876142237124 Q -1.2609270456902 3.3817657069183227 -1.303514276445191 3.387767122020839 Q -1.346101507200182 3.393768537123355 -1.3866752536139333 3.4235413851087126 Q -1.4272490000276843 3.453314233094071 -1.4459782736844855 3.4923066163514496 Q -1.464707547341287 3.531298999608828 -1.4603787641480606 3.57160680640799 Q -1.456049980954834 3.6119146132071527 -1.4299569231699136 3.6474736269180807 Q -1.4038638653849933 3.683032640629009 -1.3667113772278334 3.6992545479343986 M -0.6931138711839482 3.931769719235908 L -0.9685413746539864 4.208116156652347 L -0.9965765204788424 4.180174236010459 L -0.7766336879976959 3.9594975881605197 L -1.0951000329490512 4.081978343468967 L -1.115525639192875 4.061620658429877 L -0.9949046597717055 3.743549122204871 L -1.2140491516630838 3.9634247658883854 L -1.2420842974879398 3.9354828452464976 L -0.9666567940179016 3.6591364078300583 L -0.9370196398601967 3.6886750096514827 L -1.0687894199832306 4.034753724146455 L -0.7231515274248654 3.9018319471195992 L -0.6931138711839482 3.931769719235908 M -0.5952689099549828 4.042020937444938 L -0.6852738432917743 4.158982647834936 L -0.5665196162674468 4.25036696712325 L -0.5865207125645117 4.276358458321027 L -0.7052749395888391 4.184974139032713 L -0.7966592588771524 4.303728366057041 L -0.6644611570953539 4.405458079981766 L -0.6844622533924187 4.431449571179544 L -0.8480293962749829 4.305580603103188 L -0.6066368547586837 3.9918901920955308 L -0.44306971187611954 4.117759160171887 L -0.4630708081731843 4.143750651369664 L -0.5952689099549828 4.042020937444938 M -0.16544639568972636 4.635644607329742 L -0.324037790921866 4.550897689301131 L -0.39869836797189717 4.617427908196697 L -0.43560328384352714 4.5977069272718 L -0.12454611647265612 4.321550956791043 L -0.08514762520429442 4.342604436427082 L -0.14235881718787263 4.754408775702061 L -0.17926373305950266 4.734687794777165 L -0.16544639568972636 4.635644607329742 M -0.1604624273067563 4.6011226381408585 L -0.12854820569424197 4.375831373720428 L -0.2981077892063492 4.527568709285838 L -0.1604624273067563 4.6011226381408585 M 0.5659887539559456 4.600803899552456 L 0.32900724876921705 4.93636242830111 L 0.2874099458438223 4.921701067177595 L 0.3055772011610685 4.57077296331511 L 0.09755558890227717 4.8547851112805285 L 0.0568369173195398 4.8410329812489685 L 0.08495327653663737 4.431258415790787 L 0.12495068319567076 4.4453558784095515 L 0.09505522293091095 4.802342602422748 L 0.3057389612945017 4.509076409446364 L 0.3473362642198964 4.523737770569879 L 0.3249069865314895 4.883356020938578 L 0.5259913472969122 4.586706436933691 L 0.5659887539559456 4.600803899552456 M 0.8101305186982549 4.950643952376908 L 0.6334495229071105 4.917220959044856 L 0.5821106624153479 5.0030393323406885 L 0.5409962168538867 4.9952616546470665 L 0.755195963161616 4.638698686734436 L 0.7990884118015544 4.647001883191141 L 0.8676893788827951 5.0570626611855785 L 0.8265749333213339 5.049284983491956 L 0.8101305186982549 4.950643952376908 M 0.8045589234204089 4.916211937861627 L 0.767615256943484 4.6916905872676775 L 0.6512131534884724 4.8872033021394685 L 0.8045589234204089 4.916211937861627 M 1.279167529002751 4.6942156406452895 L 1.135708676353373 4.926078611562326 L 1.1248059521535658 5.079495328916402 L 1.085323708716855 5.076689480776746 L 1.0962264329166622 4.92327276342267 L 0.9858708634728988 4.673372197322129 L 1.0304293953514725 4.676538797365455 L 1.1185329015055605 4.8885776363503615 L 1.2351730291732732 4.691089124146815 L 1.279167529002751 4.6942156406452895 M 1.7328105866360568 4.670196756129482 L 1.7356006735748797 4.702874223636044 L 1.5620720530227927 4.717690547380139 L 1.574627444247496 4.864739151159667 L 1.721112643414842 4.852231864882185 L 1.723902730353665 4.884909332388746 L 1.5774175311863188 4.897416618666229 L 1.592907324191508 5.078832903788865 L 1.5534690013387609 5.082200250094341 L 1.5198436432312228 4.6883804261790525 L 1.7328105866360568 4.670196756129482 M 2.0920707720898997 5.008215122993849 L 1.9650107887724988 4.8643838427442985 L 1.8933620400452802 4.878067076710517 L 1.9243349417362559 5.04024874049616 L 1.8854557757602457 5.047673751175503 L 1.8113117405479442 4.659437508072202 L 1.9279492384759747 4.637162476034171 Q 1.9929329873215917 4.624752101041554 2.032475703601475 4.649438103163787 Q 2.072018419881359 4.674124105286019 2.0816709337645056 4.724667021054833 Q 2.0897323739306497 4.766878686971643 2.071246578950485 4.801207591889757 Q 2.0527607839703195 4.835536496807872 2.0072475134404426 4.85343924771302 L 2.138725771261112 4.9993051101786365 L 2.0920707720898997 5.008215122993849 M 1.887315959920672 4.846408327272909 L 1.9656297085294923 4.831452234333089 Q 2.0111738743871044 4.822754364680143 2.0299808023989714 4.796135727791098 Q 2.048787730410838 4.769517090902053 2.041680934474895 4.732304174896443 Q 2.034361995376685 4.693980425577233 2.0081676448121737 4.677395164192567 Q 1.9819732942476624 4.6608099028079 1.93420746176285 4.669932058785379 L 1.8564491298108297 4.684782080144067 L 1.887315959920672 4.846408327272909 M 2.3423381184281795 4.9214650406050096 Q 2.2918488199496743 4.911060224516961 2.2529545637803516 4.875381638411895 Q 2.214060307611029 4.839703052306829 2.1957773647551337 4.784405282137933 Q 2.177494421899238 4.729107511969037 2.1874554772383576 4.677276034602937 Q 2.197416532577477 4.625444557236838 2.231752939794948 4.586994061816445 Q 2.2660893470124193 4.548543566396051 2.3181658878510882 4.531325649337587 Q 2.370779300244795 4.513930227979551 2.4212685987233 4.5243350440676 Q 2.4717578972018046 4.534739860155648 2.5103837175936086 4.5705071984105 Q 2.5490095379854125 4.606274536665351 2.567292480841308 4.661572306834247 Q 2.585575423697203 4.7168700770031435 2.5758828041356026 4.768612802219457 Q 2.5661901845740025 4.820355527435771 2.531853777356531 4.858806022856164 Q 2.49751737013906 4.897256518276557 2.4449039577453533 4.914651939634593 Q 2.3928274169066843 4.9318698566930586 2.3423381184281795 4.9214650406050096 M 2.502848058392184 4.8377247968558725 Q 2.5297439400199444 4.807392154301059 2.5370897757802093 4.764763169551421 Q 2.5444356115404747 4.722134184801783 2.5286377288785844 4.674352616403417 Q 2.512839846216694 4.626571048005051 2.481619682164022 4.596990808602102 Q 2.45039951811135 4.5674105691991524 2.41072332691442 4.5590884597912416 Q 2.37104713571749 4.5507663503833315 2.3291711544245395 4.564611685749933 Q 2.2872951731315894 4.578457021116533 2.260399291503829 4.608789663671346 Q 2.233503409876069 4.6391223062261595 2.2260688219660176 4.681482855198278 Q 2.218634234055967 4.723843404170397 2.2344321167178567 4.771624972568763 Q 2.250229999379747 4.81940654096713 2.2815389155822055 4.849255216147598 Q 2.3128478317846635 4.879103891328066 2.3525240229815934 4.887426000735976 Q 2.3922002141785232 4.895748110143886 2.4340761954714734 4.881902774777286 Q 2.475952176764424 4.868057439410686 2.502848058392184 4.8377247968558725 M 2.9318957422940715 4.268765228896656 L 3.1097518494806247 4.6160329473458965 L 3.0745217910872236 4.634076320538735 L 2.932494667812164 4.35676543232782 L 2.950713300161842 4.697485889187854 L 2.925045686189507 4.710631775371208 L 2.6597255969374327 4.497737028906366 L 2.8012371952641253 4.774041344020327 L 2.766007136870724 4.792084717213166 L 2.5881510296841705 4.444816998763925 L 2.6253942342714804 4.425742575674353 L 2.913913702276562 4.657885351056724 L 2.894149251158284 4.288097414460411 L 2.9318957422940715 4.268765228896656 M 3.3866167040629325 3.929412827334603 L 3.6326935611778186 4.238719954328128 L 3.601718598531829 4.263362844167959 L 3.4866010988514744 4.11866551866455 L 3.318893801096759 4.252089165083065 L 3.4340113007771134 4.396786490586474 L 3.4030363381311237 4.421429380426305 L 3.1569594810162376 4.11212225343278 L 3.1879344436622272 4.087479363592949 L 3.2984754066580417 4.226424196033531 L 3.4661827044127573 4.093000549615017 L 3.355641741416943 3.9540557171744344 L 3.3866167040629325 3.929412827334603 M 3.790111689318827 4.060632799904797 Q 3.740692581592965 4.075301857483843 3.68956026097757 4.062217116068518 Q 3.638427940362175 4.049132374653192 3.5962002646361473 4.009020870219907 Q 3.55397258891012 3.9689093657866223 3.5382785877454914 3.9185166778560694 Q 3.5225845865808627 3.868123989925516 3.534695747791496 3.818016612895704 Q 3.5468069090021297 3.767909235865892 3.5845818209441553 3.7281414247452647 Q 3.6227461649680577 3.6879636361904033 3.6721652726939196 3.6732945786113578 Q 3.7215843804197815 3.658625521032312 3.7725219849942384 3.671915251164754 Q 3.823459589568695 3.6852049812971956 3.8656872652947225 3.7253164857304806 Q 3.90791494102075 3.765427990163766 3.923803658226317 3.815615689377202 Q 3.939692375431884 3.865803388590639 3.9275812142212505 3.915910765620451 Q 3.915470053010617 3.9660181426502628 3.8773057089867144 4.006195931205124 Q 3.839530797044689 4.0459637423257515 3.790111689318827 4.060632799904797 M 3.8920583893288043 3.9110241784704396 Q 3.9014439907727527 3.8715860226004204 3.8877900689095624 3.8305401694413552 Q 3.874136147046372 3.7894943162822896 3.8376481553996107 3.7548348609952766 Q 3.801160163752849 3.720175405708263 3.759672120711664 3.7088426438549322 Q 3.7181840776704784 3.697509882001601 3.679280100961734 3.708908927976508 Q 3.64037612425299 3.7203079739514155 3.610000421866619 3.752286213821611 Q 3.5796247194802473 3.784264453691806 3.570239118036299 3.8237026095618254 Q 3.5608535165923505 3.8631407654318446 3.574302449738424 3.903991902549971 Q 3.587751382884498 3.9448430396680982 3.6242393745312595 3.9795024949551117 Q 3.660727366178021 4.014161950242125 3.702420397936323 4.025689428136395 Q 3.744113429694625 4.037216906030664 3.7830174064033693 4.025817860055756 Q 3.8219213831121133 4.014418814080849 3.852297085498485 3.9824405742106537 Q 3.882672787884856 3.9504623343404583 3.8920583893288043 3.9110241784704396 M 4.001600859862158 3.206895388984198 L 4.322358266099236 3.429026767867412 L 4.299823198676302 3.4615673742972604 L 4.04368213949278 3.284184200725303 L 4.220628533161417 3.575924362607871 L 4.204210126896136 3.5996325187210463 L 3.869804133810011 3.537250192528926 L 4.125015461381252 3.713989507031657 L 4.1024803939583165 3.7465301134615054 L 3.7817229877212384 3.5243987345782917 L 3.8055457732826263 3.4899986649238803 L 4.169490711096526 3.5583933563831005 L 3.977456144766157 3.2417603244447504 L 4.001600859862158 3.206895388984198 M 4.092780455642678 3.0910711736068675 L 4.223833516657904 3.1589388752097167 L 4.2927413362929805 3.0258773381636055 L 4.321864238740809 3.040959049630905 L 4.2529564191057325 3.1740205866770164 L 4.386017956151844 3.242928406312093 L 4.462726661028627 3.0948032990343464 L 4.491849563476455 3.1098850105016465 L 4.396938793035689 3.293158448319875 L 4.045455487630867 3.11113779268005 L 4.140366258071633 2.9278643548618213 L 4.169489160519461 2.942946066329121 L 4.092780455642678 3.0910711736068675" fill="#4c2c56" fill-rule="nonzero"></path></g><g transform="matrix(1,0,0,1,0,0)" clip-path="url(#SvgjsClipPath1443)"><g clip-path="url(#abe4382fc-4cc6-448f-94c5-914f9c4a398afad6a91d-9498-4d34-8e92-cac34724e13c)"><path d=" M 0.8268762184031188 0.3330686758847939 C 0.8596963534688302 0.23954722305191706 0.9282840629144069 0.1602850036577838 1.0325596862178443 0.09528201770239413 C 1.1374725936973153 0.03171292114307925 1.253219332169351 -0.00007162713657827733 1.3795609200679393 -0.00007162713657827733 C 1.49269751375078 -0.0009669248565266884 1.6037675690279252 0.030246495303427004 1.6998758790466426 0.08994476272811582 C 1.7969820553697065 0.14992913579724376 1.8762442747638397 0.24520312011421197 1.9375828767070382 0.37592603672302866 C 2.0154908672271006 0.3409550675632051 2.089017529036935 0.32342975272229113 2.158322183180549 0.32342975272229113 C 2.2832298816830625 0.32342975272229113 2.3886207522945577 0.3755277341130079 2.474255813449024 0.4798033574164455 C 2.5542349775411943 0.5754756443434345 2.5942245595872797 0.6811851570429469 2.5942245595872797 0.7968522349929785 C 2.5941166761613137 0.8988682770900499 2.5733599032550902 0.999806892071336 2.5332045997320844 1.0935876794584838 C 2.5531993907551405 1.0828335089878913 2.5703264029860335 1.077496254013613 2.584585636424777 1.077496254013613 C 2.5988448698635205 1.077496254013613 2.6060143168438947 1.0849843430820034 2.6060143168438947 1.0999605212187844 C 2.6060143168438947 1.198500586937923 2.56028917721351 1.3053253469454935 2.4689185584747455 1.4202754801974877 C 2.3660768245673824 1.5480509574921508 2.251445333403405 1.620940335125952 2.1251037455048167 1.638784292054882 C 2.084397218760694 1.6458740785132517 2.0640041251276307 1.6351995685646952 2.0640041251276307 1.6066014411652039 C 2.0640041251276307 1.5866066501421614 2.072926103592096 1.5616729067548611 2.0907700605210264 1.531640889959295 C 1.9964484318905726 1.5577255627468425 1.8967696427853014 1.5573673033444735 1.8026379524320013 1.530605303173241 C 1.7528696350366295 1.5179771429284576 1.70472741595809 1.499639795739186 1.6591693523025204 1.4759581850783916 C 1.6591693523025202 1.2446240291783282 1.706248720806975 1.0146441021523354 1.8005667788598936 0.7861777250444217 C 1.8262174669452311 0.7269102966733312 1.8626223255011294 0.665810676296145 1.9097813545275888 0.6029585244348675 C 1.956940383554048 0.5409029777936315 1.9804402375452734 0.5051354034137664 1.9804402375452734 0.49589478286128447 C 1.9804402375452734 0.4829897782966115 1.9736690931749203 0.4684119027698513 1.960126804434214 0.45200183523699555 C 1.945150626297433 0.43766294127624783 1.9347947584368932 0.4305731548178781 1.929059200852594 0.4305731548178781 C 1.8197649646628946 0.5005150931375253 1.7230570909498517 0.6479667193672144 1.6387762586694568 0.8729280335069454 C 1.5537784816910243 1.0985266318227096 1.5113194234628102 1.3288252009367187 1.5113194234628102 1.563823740848973 C 1.5113194234628102 1.762337761683325 1.540236192950318 1.9297841789360568 1.598069731925334 2.0661629926071683 C 1.6645066072767984 2.2261213207915094 1.7673483411841613 2.342505343439579 1.9065949336474226 2.4153150605513756 C 1.8594359046209634 2.428937009814086 1.824066632851119 2.4374606856685306 1.8005667788598936 2.441045409158717 C 1.7716745943901335 2.4453431821989544 1.7427289317638797 2.449273418959217 1.7137368098753587 2.4528351664153325 C 1.540236192950318 2.452835166415332 1.4095929368635056 2.373174644411178 1.3217273810929238 2.2139332609248736 C 1.2574413398355715 2.0946814594846557 1.2070958899289461 1.9065233065108438 1.1706910313730476 1.6494588020034389 C 1.1342861728171494 1.392394297496034 1.098916901047305 1.141065350572928 1.0646628765855188 0.895392300712117 C 1.0453850302605134 0.7797252227620854 1.0164682607730056 0.6740157100625731 0.977912568122995 0.578343423135584 C 0.9265315314303154 0.450567945840921 0.8722030554234824 0.3866005466715854 0.815086461146504 0.3866005466715854 C 0.8029780618018726 0.3866005466715854 0.7907900019352371 0.4012580827203497 0.7786816025906056 0.4305731548178784 C 0.7780348299206745 0.43773321641358764 0.7758327270948461 0.44466576234675126 0.7722291003082691 0.45088658792893765 C 0.8514913197024024 0.5672706105770067 0.9133078847776259 0.7222103258750862 0.9575194744899314 0.9157853943451806 C 1.0010937800262036 1.107846912897196 1.0229207630553419 1.3227710012644032 1.0229207630553419 1.560557659446803 C 0.9842854098833271 1.6127353013595238 0.9008011828229736 1.638784292054882 0.7722291003082691 1.638784292054882 C 0.6108368827278531 1.638784292054882 0.4619513671020893 1.601981130888963 0.3255725534309776 1.5284544690791289 C 0.16704811464271108 1.4456075261948087 0.08778589524857776 1.3384641240992217 0.08778589524857776 1.2071039233143717 C 0.14346860012948137 0.9593596998814525 0.2227308195236147 0.7554287635508182 0.3255725534309775 0.595470435366477 C 0.44554129956923355 0.40986141909679835 0.5794506370582164 0.3169772504399547 0.7272209053759221 0.3169772504399547 L 0.785134104872942 0.3169772504399547 C 0.8051288958959847 0.324863642118366 0.8190694872467117 0.33020089709264433 0.8268762184031188 0.3330686758847939 M 1.173957112775218 0.7829116436422516 C 1.1903671803080738 0.7829116436422516 1.205024716356838 0.7768574439699361 1.2178500603995066 0.7647490446253046 C 1.2289449546694755 0.7519806601379174 1.235030478910987 0.7356205065956218 1.2349770726304 0.7187052629069036 C 1.235177764664141 0.7014284406813062 1.2290907204868835 0.6846678353188114 1.2178500603995066 0.6715462338804443 C 1.2062052531950807 0.6599031175187458 1.190424111995167 0.6533443492160596 1.173957112775218 0.6533039743414931 C 1.1574659759117967 0.6533406728003964 1.1416587031089913 0.6598984001044589 1.1299845046289247 0.6715462338804444 C 1.1187438445415478 0.6846678353188114 1.1126568003642905 0.7014284406813062 1.1128574923980317 0.7187052629069034 C 1.1128574923980317 0.7358322751377965 1.1185930499823307 0.7511270953625941 1.129984504628925 0.7647490446253046 C 1.1416667782013263 0.7763750354553841 1.1574756343373724 0.7829047803811422 1.173957112775218 0.7829116436422516 M 0.03313877715372817 1.622692866610043 C 0.0538505128748082 1.5898727315443317 0.08961808725467328 1.573462664011476 0.14028217924931538 1.573462664011476 C 0.18529037418166236 1.573462664011476 0.2752271035243522 1.60556585437915 0.41017202779938916 1.6698518956365023 C 0.4801936266410405 1.7041059200982887 0.5515694543567625 1.7383599445600748 0.6244588319905634 1.7726936295438653 C 0.6351333419391201 1.8226407768404695 0.6404705969133984 1.866215082376742 0.6404705969133984 1.9033368856306776 C 0.6404705969133984 2.0168531294865972 0.6090843512437617 2.1068695193512914 0.5462321993824842 2.173226734180752 C 0.4826631028231693 2.2410974989282906 0.40268393873099867 2.27503288130206 0.30629470710597223 2.27503288130206 C 0.2920773287535052 2.2731812478769218 0.27777112765725903 2.272090998351 0.2634373462677376 2.2717667998998903 C 0.19779707613631453 2.2425313883243656 0.13781270306718651 2.1729080920927353 0.08348422706035347 2.0628969112049984 C 0.02780152217944974 1.9543992802353407 0 1.852274491026015 0 1.7566022040990263 C 0 1.6987686651240106 0.011072812558577436 1.654158772801684 0.03313877715372817 1.622692866610043 M 0.7690426794281028 1.7651258799534706 C 0.8225745502148943 1.7651258799534706 0.8768233656997233 1.7580360934951011 0.9318687864045937 1.7437768600563575 C 0.9889853806815722 1.7308718554916844 1.0300105495137115 1.7176482088389948 1.0550239534230157 1.7041059200982887 C 1.0935796460730265 1.9069216091208645 1.1485454062558926 2.077952749863783 1.2200008944936187 2.2171993423270444 C 1.3035647820759761 2.3806627334795682 1.40489296606526 2.4906739143673056 1.524144767505479 2.5470735639462467 C 1.5091685893686977 2.569219189063401 1.4923602192258214 2.6056240476192998 1.4737993175988533 2.656367800135946 C 1.4565720859404732 2.705961662543887 1.439445038776132 2.7555902689782212 1.4224182809068942 2.80525331575961 C 1.3281798833752598 2.6345408171068074 1.2313923491402128 2.501746726925883 1.1321353387230368 2.406791384696931 C 1.0029259720322992 2.280370136276339 0.8522082644004397 2.1979214960020395 0.6801415368714671 2.1593658033520287 C 0.6922499362160985 2.1300507312545003 0.7030041066866592 2.095398404182693 0.7122447272391412 2.0554088221366076 C 0.7222819530116645 2.0147022953924854 0.7272209053759221 1.9751110159564207 0.7272209053759221 1.9365553233064097 C 0.7272209053759221 1.8908301836760253 0.7186972295214776 1.831961057914956 0.7015702172905844 1.759788624979192 C 0.7265039606778847 1.7633733484693792 0.7490478884050603 1.7651258799534704 0.769042679428103 1.7651258799534704 M 1.2724971784943564 0.4209342316553756 L 1.5338633511899855 0.4209342316553756 L 1.5338633511899855 0.3619854453723016 L 1.2724971784943564 0.3619854453723016 Z M 1.5305972697878152 0.2645606269612214 L 1.2724971784943564 0.2645606269612214 L 1.2724971784943564 0.3202433318421251 L 1.5305972697878152 0.3202433318421251 Z M 1.535934524762094 0.17350865031047336 L 1.2638938421179076 0.17350865031047336 C 1.2696293997022068 0.19414072550954925 1.2834903305309295 0.21023215095438838 1.3056359556480845 0.22170326612298652 L 1.4984940794201411 0.22170326612298652 C 1.513470257556922 0.21525076384065006 1.5259769595115746 0.19915933839581096 1.535934524762094 0.17350865031047336 M 1.5048669211804737 0.7187052629069034 C 1.5048669211804737 0.7358322751377965 1.5106024787647725 0.7511270953625941 1.5220735939333707 0.7647490446253046 C 1.5334103235922407 0.7768358908460241 1.5494039572512095 0.7834539461531835 1.5659665415576594 0.7829116436422516 C 1.5821969516518521 0.7832889620154394 1.5978069195499955 0.7766735852853712 1.6088239023958943 0.7647490446253046 C 1.633136009345113 0.7384378309496308 1.633136009345113 0.697857447556118 1.6088239023958943 0.6715462338804443 C 1.5978151593957888 0.6596008966207167 1.5822073359750808 0.6529574178784452 1.5659665415576596 0.6533039743414931 C 1.5493935218615715 0.6527925750402783 1.5334020999018052 0.6594387377059523 1.5220735939333707 0.6715462338804444 C 1.5107784886665718 0.6846413023255505 1.5046590289653485 0.7014131548400139 1.5048669211804737 0.7187052629069034 M 1.6366254245753442 1.5937760971225352 C 1.7144537545734029 1.6238081139181013 1.76981781736629 1.6423690155450692 1.8026379524320013 1.6494588020034393 C 1.837688582113829 1.6559113042857754 1.8787137509459684 1.6590977251659418 1.9258727799724276 1.6590977251659418 C 1.9729521484768824 1.6590977251659418 2.0136586752210053 1.6534418281036467 2.0479923602047956 1.6419707129350487 C 2.0479923602047956 1.685545018471321 2.0504618363869245 1.7194804008450904 2.055480449273186 1.7437768600563575 C 2.061216006857485 1.7694275481416948 2.0729261035920956 1.801610399031373 2.090770060521026 1.8401660916813838 C 2.01509256461708 1.9650737901838973 1.9087457677415343 2.0861577836302114 1.7715703488503813 2.2032587509763175 C 1.724490980345926 2.146859101397377 1.6884047638780444 2.0758019157696714 1.6633913599687398 1.9900871940932017 C 1.6269587759760666 1.861290510342324 1.6178419603159864 1.726301945137269 1.6366254245753442 1.5937760971225352 M 2.4539423803379643 1.92906723423802 C 2.3832038367982755 1.92906723423802 2.327521131917372 1.9093910853029938 2.2868146051732494 1.8701184479549462 C 2.2446741890330517 1.830845810606898 2.2236438112239556 1.781615608008331 2.2236438112239556 1.7223481796372404 C 2.22507770062003 1.7108770644686424 2.2257946453180675 1.7019550860041768 2.2257946453180675 1.6955025837218405 C 2.243638602246998 1.6548757174997217 2.2868146051732494 1.6176742537237818 2.355322654096822 1.584137173960033 C 2.4224764741463236 1.5498831494982468 2.4853286260076017 1.5327561372673537 2.543879109680655 1.5327561372673537 C 2.580283968236553 1.5327561372673537 2.6081651509380066 1.539527281637707 2.627442997263012 1.553069570378413 C 2.647437788286055 1.5659745749430862 2.6573953535365744 1.5880405395382369 2.6573953535365744 1.6195064457298776 C 2.6573953535365744 1.6473079679093274 2.6377988651235524 1.7030703333122352 2.598526227775504 1.786554560372589 C 2.5766741910059583 1.8302662364415017 2.555244512689489 1.8741877828299043 2.5342401865181468 1.9183130637674684 C 2.5079644303440096 1.9249091324717968 2.4810278084181454 1.9285167157654395 2.4539423803379647 1.9290672342380204 M 2.7024035484689213 1.8262255003306576 L 2.7024035484689213 1.8272610871167119 L 2.7002527143748094 1.831562755304936 C 2.7008730168529 1.8297462340364692 2.7015910079109124 1.827964552522143 2.702403548468921 1.826225500330658 M 2.333973634199709 2.703447168640402 C 2.096186976017309 2.8927205689222713 1.8197649646628948 2.987277608541202 1.5048669211804742 2.987277608541202 C 1.502716087086362 2.9766030985926455 1.5016805003003078 2.9583608390536944 1.5016805003003078 2.9327101509683566 C 1.5016805003003078 2.864839386220817 1.5123550102488645 2.795216089989187 1.533783690667982 2.7238402622734648 C 1.5552123710870993 2.6538186634318133 1.5884308087628316 2.596702069154835 1.6334390036951787 2.5524108189205252 C 1.7276774012260927 2.5524108189205252 1.8105243441104129 2.5431701983680437 1.8819001718261348 2.5246092967410756 C 1.9818741269413482 2.4995958928317714 2.0319009347599573 2.460323255483723 2.0319009347599573 2.4067913846969318 C 2.0319009347599573 2.3696695814429956 2.0104722543408395 2.343222288137617 1.9676148935026045 2.3275291653027987 C 1.9012576786731445 2.303949650789569 1.8584003178349096 2.2832379150684887 1.8391224715099044 2.265393958139558 C 1.9126491333197384 2.1989570827880933 1.9729521484768833 2.133954096832704 2.0201111775033422 2.0704646607953934 C 2.0472754155067587 2.033263197019454 2.0800955505724703 1.9818821603267744 2.1186512432224807 1.916162229673347 C 2.150754433590155 1.9447603570728385 2.192576207642336 1.97049070568018 2.2439572443350153 1.993273614973368 C 2.295545622335326 2.0147447938750327 2.3509056346632957 2.025686792397782 2.4067833513115056 2.0254564658630465 C 2.4781591790272284 2.0254564658630465 2.549614667264954 2.00864809572017 2.620990494980676 1.975111015956421 C 2.6503055670782047 2.0229073291589135 2.664883442604965 2.0808205286559334 2.664883442604965 2.1486116328814684 C 2.664883442604965 2.342823985527596 2.554633280151216 2.5277957176212413 2.333973634199709 2.703447168640401 M 1.4009896004870572 2.6477644637594975 C 1.4295877278865488 2.6477644637594975 1.4438469613252922 2.631673038314658 1.4438469613252922 2.5995698479469844 C 1.4438469613252922 2.570254775849455 1.4295877278865488 2.5556769003226956 1.4009896004870572 2.5556769003226956 C 1.373825362483641 2.5556769003226956 1.3602830737429348 2.570254775849455 1.3602830737429348 2.5995698479469844 C 1.3602830737429348 2.631673038314658 1.373825362483641 2.6477644637594975 1.4009896004870572 2.6477644637594975 M 1.6633913599687407 3.0719567434316177 C 1.7191537253716485 3.0633534070551693 1.7765889617366437 3.048377228918388 1.8358563901077343 3.026948548499271 C 1.7929990292694993 3.0797634745880247 1.7512569157393227 3.1190361119360728 1.7105503889951998 3.1447664605434142 C 1.6391745612794777 3.190491600173799 1.5577615077912326 3.213354169988991 1.4663112285304638 3.213354169988991 C 1.4166626021904032 3.2135352075264785 1.3671328688996178 3.2084887818704364 1.3185409602127587 3.1982983313302062 C 1.2713819311862988 3.188340766079687 1.2167348130914493 3.1693815618426977 1.1545996059282089 3.141580039663248 C 1.1718062786811063 3.141580039663248 1.1896502356100367 3.142615626449302 1.2082111372370046 3.144766460543414 C 1.2282059282600475 3.146917294637526 1.243580409006849 3.14795288142358 1.2542549189554055 3.14795288142358 C 1.34849331648632 3.14795288142358 1.4267199490943991 3.1262055589164457 1.4888551562576393 3.082631253380174 C 1.5509903634208793 3.082631253380174 1.6091425444839118 3.0790465298899865 1.6633913599687407 3.0719567434316173 M 1.407442102769394 3.046226394824275 C 1.3355331697795472 3.0659146226321012 1.2613375411350078 3.0760127280468996 1.1867824568178866 3.0762584116198415 C 0.9618211426781563 3.0762584116198415 0.7515173645871897 3.000899557803912 0.5558711225449875 2.8501818501720524 C 0.3595079358047478 2.6995438030621974 0.23778665818240047 2.5285126623192786 0.19062762915594128 2.3371680884653 C 0.23133415590006398 2.355012045394231 0.27809488231650237 2.363934023858696 0.3309098084052565 2.363934023858696 C 0.3916111261724219 2.363934023858696 0.4484090783613836 2.3546137427842098 0.5012240044501378 2.336052841157242 C 0.5534016463628587 2.3160580501341994 0.6019149042633885 2.28212266776043 0.6469230991957354 2.234326354557937 C 0.7797171893766602 2.272882047207948 0.9071740245833066 2.3456917643197444 1.0292936048156747 2.4528351664153316 C 1.1663893631848237 2.5742378019496623 1.2924919695173998 2.7352317169200577 1.407442102769394 2.9358965718485215 Z" fill="#bf5000" transform="matrix(1,0,0,1,0,0)" fill-rule="nonzero"></path></g></g><g><path d=" M -1.4538145559709 1.6066770849944951 A 2.805019708218241 2.805019708218241 0 0 1 4.156224860465582 1.6066770849944951 A 2.805019708218241 2.805019708218241 0 0 1 -1.4538145559709 1.6066770849944951 Z M -1.4038145559709 1.6066770849944951 A 2.7550197082182413 2.7550197082182413 0 0 0 4.106224860465582 1.6066770849944951 A 2.7550197082182413 2.7550197082182413 0 0 0 -1.4038145559709 1.6066770849944951 Z" fill="#4f200c" fill-rule="nonzero"></path></g><g><path d=" M -2.8697653316472835 1.6066770849944954 A 4.220970483894625 4.220970483894625 0 0 1 5.572175636141967 1.6066770849944954 A 4.220970483894625 4.220970483894625 0 0 1 -2.869765331647283 1.6066770849944954 Z M -2.8197653316472837 1.6066770849944945 A 4.170970483894624 4.170970483894624 0 0 0 5.522175636141965 1.6066770849944945 A 4.170970483894624 4.170970483894624 0 0 0 -2.819765331647284 1.6066770849944945 Z" fill="#4f200c" fill-rule="nonzero"></path></g><g transform="matrix(-0.24359881747897139,-0.9698760828697895,0.9698760828697895,-0.24359881747897139,-4.666211795603054,0.7636441073730951)"><g clip-path="url(#SvgjsClipPath1444)"><path d=" M -2.038776848363741 2.3756991033945813 L -2.031890914233871 2.3756991033945813 L -2.0103723700780267 2.2500308055244513 L -1.8907292645715332 2.294789377368607 L -1.8872862975065983 2.288764185004971 L -1.9854108588572474 2.206993717212763 L -1.8872862975065983 2.126083991186789 L -1.8907292645715332 2.1200587988231527 L -2.0103723700780267 2.163956628901075 L -2.031890914233871 2.038288331030945 L -2.038776848363741 2.038288331030945 L -2.0602953925195853 2.163956628901075 L -2.1799379600624746 2.1200587988231527 L -2.18338092712741 2.126083991186789 L -2.0852569037403645 2.206993717212763 L -2.18338092712741 2.288764185004971 L -2.1799379600624746 2.294789377368607 L -2.0602953925195853 2.2500308055244513 L -2.038776848363741 2.3756991033945813 Z" fill="#4f200c" transform="matrix(1,0,0,1,0,0)" fill-rule="nonzero"></path></g></g><g transform="matrix(0.24359881747897139,-0.9698760828697895,-0.9698760828697895,-0.24359881747897139,5.718712660504555,7.332673140121425)"><g clip-path="url(#SvgjsClipPath1445)"><path d=" M 4.734283286608423 2.3756991033945813 L 4.741169220738293 2.3756991033945813 L 4.762687764894137 2.2500308055244513 L 4.88233087040063 2.294789377368607 L 4.885773837465566 2.288764185004971 L 4.787649276114916 2.206993717212763 L 4.885773837465566 2.126083991186789 L 4.88233087040063 2.1200587988231527 L 4.762687764894137 2.163956628901075 L 4.741169220738293 2.038288331030945 L 4.734283286608423 2.038288331030945 L 4.7127647424525785 2.163956628901075 L 4.593122174909689 2.1200587988231527 L 4.589679207844754 2.126083991186789 L 4.6878032312318 2.206993717212763 L 4.589679207844754 2.288764185004971 L 4.593122174909689 2.294789377368607 L 4.7127647424525785 2.2500308055244513 L 4.734283286608423 2.3756991033945813 Z" fill="#4f200c" transform="matrix(1,0,0,1,0,0)" fill-rule="nonzero"></path></g></g></g><defs><clipPath id="SvgjsClipPath1443"><path d=" M 0 0 h 2.7024103044946823 v 3.2133541699889903 h -2.7024103044946823 Z"></path></clipPath><clipPath id="abe4382fc-4cc6-448f-94c5-914f9c4a398afad6a91d-9498-4d34-8e92-cac34724e13c"><path d=" M 0 3.2133541699889903 L 2.702403548468921 3.2133541699889903 L 2.702403548468921 0.000008033385425380435 L 0 0.000008033385425380435 Z"></path></clipPath><clipPath id="SvgjsClipPath1444"><path d=" M -2.286374597056923 1.950349213914062 h 0.5020993636363636 v 0.5020993636363636 h -0.5020993636363636 Z"></path></clipPath><clipPath id="SvgjsClipPath1445"><path d=" M 4.486685537915241 1.950349213914062 h 0.5020993636363636 v 0.5020993636363636 h -0.5020993636363636 Z"></path></clipPath></defs></svg>